<?xml version="1.0" encoding="UTF-8"?>
<svg width="185px" height="185px" viewBox="0 0 185 185" version="1.1" xmlns="http://www.w3.org/2000/svg" xmlns:xlink="http://www.w3.org/1999/xlink">
    <!-- Generator: Sketch 50.2 (55047) - http://www.bohemiancoding.com/sketch -->
    <title>Pattern</title>
    <desc>Created with Sketch.</desc>
    <defs></defs>
    <g id="Pattern" stroke="none" stroke-width="1" fill="none" fill-rule="evenodd">
        <g id="Group-3" transform="translate(-12.950000, 0.000000)">
            <g id="icon/filter/burger" transform="translate(15.890235, 46.708955) rotate(-26.000000) translate(-15.890235, -46.708955) translate(5.390235, 36.208955)">
                <g>
                    <rect id="Rectangle-10" x="0" y="0" width="20.9666667" height="20.9666667"></rect>
                    <g id="icons8-Hamburger" transform="translate(3.083333, 4.316667)" fill="#E5E5E5" fill-rule="nonzero">
                        <path d="M4.34845361,0 C2.33395634,0 0.686597938,1.66451838 0.686597938,3.7 L0.686597938,3.85416667 L0,4.77916667 C0.216946029,4.94296875 0.44342814,5.05136703 0.686597938,5.12604167 L0.686597938,6.6484375 C0.314690722,6.98808578 0.0762886598,7.47467463 0.0762886598,8.01666667 C0.0762886598,8.5586587 0.314690722,9.04524755 0.686597938,9.38489583 L0.686597938,11.1 C0.686597938,11.7744792 1.23969072,12.3333333 1.90721649,12.3333333 L12.8927835,12.3333333 C13.5603093,12.3333333 14.1134021,11.7744792 14.1134021,11.1 L14.1134021,9.38489583 C14.4853093,9.04524755 14.7237113,8.5586587 14.7237113,8.01666667 C14.7237113,7.47467463 14.4853093,6.98808578 14.1134021,6.6484375 L14.1134021,5.12604167 C14.3565725,5.05136703 14.583054,4.94296875 14.8,4.77916667 L14.1134021,3.83489583 L14.1134021,3.7 C14.1134021,1.66451838 12.4660437,0 10.4515464,0 L4.34845361,0 Z M4.31666667,1.23333333 L4.93333333,1.23333333 C4.93333333,1.5721214 5.21035172,1.84843819 5.55,1.84843819 C5.88964828,1.84843819 6.16666667,1.5721214 6.16666667,1.23333333 L10.4833333,1.23333333 C11.8515625,1.23333333 12.95,2.32898885 12.95,3.69375275 L12.95,4.00130518 C12.7910159,3.95805592 12.6440754,3.8739594 12.5067708,3.77064086 L12.1791667,3.53997654 L11.8130208,3.75141883 L11.3505208,4.0205272 C10.9193358,4.27762196 10.3942059,4.27762196 9.96302083,4.0205272 L9.50052083,3.75141883 L9.21145833,3.57842059 L8.903125,3.71297478 L8.01666667,4.17430342 C7.6336587,4.36412108 7.18561213,4.36412108 6.80260417,4.17430342 L5.896875,3.71297478 L5.58854167,3.57842059 L5.29947917,3.75141883 L4.83697917,4.0205272 C4.40579412,4.27762196 3.88066422,4.27762196 3.44947917,4.0205272 L2.98697917,3.75141883 L2.62083333,3.53997654 L2.29322917,3.77064086 C2.15592463,3.8739594 2.00657537,3.95805592 1.85,4.00130518 L1.85,3.69375275 C1.85,2.32898885 2.9484375,1.23333333 4.31666667,1.23333333 Z M4.31666667,1.85 C3.97701838,1.85 3.7,2.12701838 3.7,2.46666667 C3.7,2.80631495 3.97701838,3.08333333 4.31666667,3.08333333 C4.65631495,3.08333333 4.93333333,2.80631495 4.93333333,2.46666667 C4.93333333,2.12701838 4.65631495,1.85 4.31666667,1.85 Z M6.78333333,1.85 C6.44368505,1.85 6.16666667,2.12701838 6.16666667,2.46666667 C6.16666667,2.80631495 6.44368505,3.08333333 6.78333333,3.08333333 C7.12298162,3.08333333 7.4,2.80631495 7.4,2.46666667 C7.4,2.12701838 7.12298162,1.85 6.78333333,1.85 Z M2.56302083,4.93333333 L2.81354167,5.0875 C3.63255208,5.57890625 4.65390625,5.57890625 5.47291667,5.0875 L5.64635417,4.971875 L6.24375,5.28020833 C6.97122427,5.64394547 7.82877635,5.64394547 8.55625,5.28020833 L9.15364583,4.971875 L9.32708333,5.0875 C10.1460938,5.57890625 11.1674479,5.57890625 11.9864583,5.0875 L12.2369792,4.93333333 C12.4682292,5.04414093 12.7042972,5.11399755 12.95,5.16458333 L12.95,6.16666667 L1.85,6.16666667 L1.85,5.16458333 C2.09570343,5.11399755 2.33177083,5.04414093 2.56302083,4.93333333 Z M1.85,7.4 L12.95,7.4 C13.2992837,7.4 13.5666667,7.66738297 13.5666667,8.01666667 C13.5666667,8.36595037 13.2992837,8.63333333 12.95,8.63333333 L1.85,8.63333333 C1.5007163,8.63333333 1.23333333,8.36595037 1.23333333,8.01666667 C1.23333333,7.66738297 1.5007163,7.4 1.85,7.4 Z M1.85,9.86666667 L12.95,9.86666667 L12.95,11.1 L1.85,11.1 L1.85,9.86666667 Z" id="Shape"></path>
                    </g>
                </g>
            </g>
            <g id="icon/filter/sushi" transform="translate(52.913250, 17.157984) rotate(20.000000) translate(-52.913250, -17.157984) translate(42.413250, 6.657984)">
                <g>
                    <g id="Group-22">
                        <rect id="Rectangle-10" x="0" y="0" width="20.9666667" height="20.9666667"></rect>
                        <path d="M18.3205626,3.73753496 L11.0760591,7.59477677 C10.8949469,7.49882548 10.7187292,7.40287419 10.5278264,7.32611316 C9.74218957,7.00467665 8.73872762,6.82716646 7.63002505,6.82716646 C6.52132247,6.82716646 5.51786053,7.00467665 4.73222365,7.32611316 C4.34062886,7.48683172 4.00532599,7.6787343 3.73365695,7.94020141 C3.46198791,8.20166852 3.24416347,8.56628341 3.24416347,8.97647533 L3.24416347,11.7590627 L1.93232094,12.449912 C1.82255969,12.7732516 1.82255969,13.0263037 1.93232094,13.2090682 C2.0420822,13.3918327 2.23787959,13.4969987 2.51971312,13.5245664 L3.24416347,13.1599515 L3.24416347,14.464889 L2.03021964,14.8678844 C1.88464602,15.0599525 1.85201312,15.2774421 1.93232094,15.5203532 C2.01262876,15.7632643 2.17579326,15.9359766 2.42181442,16.0384902 L3.43996086,15.7122558 C3.55009674,15.9041584 3.7116299,16.1056561 3.94903408,16.3071538 C4.57558573,16.8420824 5.67205113,17.2666667 7.63002505,17.2666667 C9.58799897,17.2666667 10.6844644,16.8420824 11.311016,16.3071538 C11.6242918,16.0408888 11.8225365,15.7554342 11.9179879,15.5203532 C12.0134393,15.2852729 12.0158866,15.059787 12.0158866,15.059787 L12.0158866,12.9104782 L19.495347,10.4733154 C19.7183917,10.2552729 19.7846555,10.0088596 19.6941385,9.73407577 C19.6036215,9.4592919 19.4068261,9.32189996 19.1037522,9.32189996 L12.0158866,11.6247309 L12.0158866,8.97647533 C12.0158866,8.82055463 11.9718325,8.67422907 11.9179879,8.5350994 L18.9275346,4.8121894 C19.1666146,4.54426809 19.209269,4.27418028 19.055498,4.00192595 C18.901727,3.72967163 18.6567485,3.6415413 18.3205626,3.73753496 Z M7.58500188,8.01666667 C8.53649943,8.01666667 9.3892335,8.18528677 9.95531438,8.42135417 C10.2395595,8.53938787 10.4443119,8.68151042 10.5527102,8.7875 C10.6611085,8.89348958 10.6683352,8.92962255 10.6683352,8.94166667 C10.6683352,8.95371078 10.6611085,8.98984375 10.5527102,9.09583333 C10.4443119,9.20182292 10.2395595,9.34394547 9.95531438,9.46197917 C9.3892335,9.69804718 8.53649943,9.86666667 7.58500188,9.86666667 C6.63350433,9.86666667 5.78077027,9.69804718 5.21468938,9.46197917 C4.9304449,9.34394547 4.72569183,9.20182292 4.61729355,9.09583333 C4.50889527,8.98984375 4.50166855,8.95371078 4.50166855,8.94166667 C4.50166855,8.92962255 4.50889527,8.89348958 4.61729355,8.7875 C4.72569183,8.68151042 4.9304449,8.53938787 5.21468938,8.42135417 C5.78077027,8.18528677 6.63350433,8.01666667 7.58500188,8.01666667 Z M7.58500188,8.63333333 C6.903296,8.63333333 6.35166855,8.77063787 6.35166855,8.94166667 C6.35166855,9.11269547 6.903296,9.25 7.58500188,9.25 C8.26670777,9.25 8.81833522,9.11269547 8.81833522,8.94166667 C8.81833522,8.77063787 8.26670777,8.63333333 7.58500188,8.63333333 Z M4.50166855,10.4833333 C4.57875188,10.5233333 4.65101782,10.5683337 4.73291855,10.6033333 C5.50616058,10.9383337 6.4937911,11.1233333 7.58500188,11.1233333 C8.67621267,11.1233333 9.66384318,10.9383337 10.4370852,10.6033333 C10.5189866,10.5683337 10.5912519,10.5233333 10.6683352,10.4833333 L10.6683352,12.0633333 L4.50166855,14.1833333 L4.50166855,10.4833333 Z M10.6683352,13.5666667 L10.6683352,15.1126761 C10.6683352,15.1126761 10.6683352,15.1322182 10.6683352,15.1300469 C10.6683352,15.1278757 10.6658568,15.1105048 10.6485067,15.1474178 C10.6212423,15.208216 10.5716711,15.3189555 10.4105646,15.442723 C10.0883516,15.6880867 9.29273216,16.0333333 7.49577359,16.0333333 C5.69881501,16.0333333 4.9031962,15.6880867 4.58098259,15.442723 C4.54628301,15.4166667 4.5264545,15.3971246 4.50166855,15.3732394 L10.6683352,13.5666667 Z" id="Shape" fill="#E5E5E5" fill-rule="nonzero"></path>
                    </g>
                    <g id="icons8-Sushi-3-Copy" transform="translate(1.850000, 3.700000)"></g>
                </g>
            </g>
            <g id="icon/filter/pizza" transform="translate(24.050000, 73.383333)">
                <g>
                    <rect id="Rectangle" x="0" y="0" width="20.9666667" height="20.9666667"></rect>
                    <g id="icons8-Pizza-Copy" transform="translate(3.083333, 2.466667)" fill="#E5E5E5" fill-rule="nonzero">
                        <g id="Group">
                            <path d="M15.5645463,9.48549987 L15.7111192,10.0146395 L0.972810182,16.0054405 C0.812380221,16.0706518 0.633084034,16.0720344 0.471667463,16.0093051 C0.122475659,15.8736029 -0.0505918682,15.4805186 0.0851103228,15.1313268 L5.85455172,0.285275781 L6.38686059,0.425319197 C10.8279862,1.59372054 14.33908,5.06147137 15.5645463,9.48549987 Z M6.60064259,1.77028304 L1.70101404,14.3781129 L14.2173586,9.29049199 C13.0426409,5.7141519 10.1927295,2.89930499 6.60064259,1.77028304 Z" id="Oval"></path>
                            <path d="M12.5967793,10.4908866 L11.4562708,10.9603026 C10.2472359,8.02279108 7.87889963,5.68586637 4.92468216,4.51719382 L5.3783719,3.37033867 C8.6440931,4.66224043 11.2603114,7.24375945 12.5967793,10.4908866 Z" id="Oval-Copy"></path>
                            <path d="M10.4833333,11.4083333 L9.25,11.4083333 C9.25,10.8974699 8.83586339,10.4833333 8.325,10.4833333 C7.81413661,10.4833333 7.4,10.8974699 7.4,11.4083333 C7.4,11.71486 7.54948635,11.9951945 7.79651279,12.1676594 L7.09048935,13.178917 C6.51645812,12.7781492 6.16666667,12.1221789 6.16666667,11.4083333 C6.16666667,10.2163187 7.13298541,9.25 8.325,9.25 C9.51701459,9.25 10.4833333,10.2163187 10.4833333,11.4083333 Z" id="Oval-2"></path>
                            <path d="M3.36827656,7.98475628 L4.37324196,7.26980478 C4.43123937,7.35132833 4.52350718,7.4 4.625,7.4 C4.7952878,7.4 4.93333333,7.26195446 4.93333333,7.09166667 C4.93333333,6.92137887 4.7952878,6.78333333 4.625,6.78333333 L4.625,5.55 C5.47643899,5.55 6.16666667,6.24022768 6.16666667,7.09166667 C6.16666667,7.94310566 5.47643899,8.63333333 4.625,8.63333333 C4.12007786,8.63333333 3.65524616,8.38813262 3.36827656,7.98475628 Z" id="Oval-3"></path>
                        </g>
                    </g>
                </g>
            </g>
            <g id="icon/filter/italian" transform="translate(81.301194, 83.159821) rotate(15.000000) translate(-81.301194, -83.159821) translate(70.801194, 72.659821)">
                <g>
                    <rect id="Rectangle-16" x="0" y="0" width="20.9666667" height="20.9666667"></rect>
                    <g id="Group-2" transform="translate(1.850000, 2.466667)" fill="#E5E5E5" fill-rule="nonzero">
                        <g id="icons8-Colosseum" transform="translate(0.000000, 0.616667)">
                            <path d="M6.43645833,0 C3.79635417,0 2.17519547,0.66243505 1.23333333,1.3875 C0.763606617,1.75123713 0.472135417,2.11497427 0.2890625,2.40885417 C0.105989583,2.70273468 0.0192708333,2.96770833 0.0192708333,2.96770833 L0,3.04479167 L0,11.5666667 C1.3527075e-16,12.6712362 0.8954305,13.5666667 2,13.5666667 L15.2666667,13.5666667 C16.3712362,13.5666667 17.2666667,12.6712362 17.2666667,11.5666667 L17.2666667,7.63125 C17.2666667,7.63125 17.1654951,6.63880208 16.3223958,5.74270833 C15.5178389,4.88756495 14.0243493,4.11432292 11.5046875,4.046875 L11.5046875,4.046875 C11.3324015,3.75832009 11.0507039,3.551741 10.7237075,3.47415404 L9.0765625,3.08333333 C9.05006495,3.01588542 9.03079412,2.96529963 8.99947917,2.890625 C8.86458333,2.57024755 8.68632843,2.17037745 8.45989583,1.77291667 C8.23346385,1.37545588 7.9805337,0.965950367 7.66979167,0.6359375 C7.35904963,0.305924633 6.98085968,0 6.43645833,0 Z M6.43645833,1.23333333 C6.40996078,1.23333333 6.56412745,1.2694663 6.7640625,1.48385417 C6.96399755,1.69824203 7.18561213,2.0258462 7.38072917,2.3703125 C7.48912745,2.56302083 7.58066422,2.75813787 7.66979167,2.9484375 C7.83088379,3.27604167 8.1137736,3.71016235 8.22473145,3.89383748 L9.33988037,4.21045125 L10.2673739,4.44625378 C10.4939775,4.50386465 10.6737655,4.67609944 10.7410431,4.9000234 L10.7552137,4.94718837 C10.8111683,5.13342526 10.9826223,5.2609375 11.1770833,5.2609375 C13.679883,5.2609375 14.8505858,5.96914093 15.4359375,6.590625 C16.0212892,7.21210968 16.0333333,7.72760417 16.0333333,7.72760417 L16.0333333,12.025 C16.0333333,12.1952878 15.8952878,12.3333333 15.725,12.3333333 L15.725,12.3333333 C15.5547122,12.3333333 15.4166667,12.1952878 15.4166667,12.025 L15.4166667,11.7166667 C15.4166667,11.3770184 15.1396483,11.1 14.8,11.1 C14.4603517,11.1 14.1833333,11.3770184 14.1833333,11.7166667 L14.1833333,11.7166667 C14.1833333,12.0572423 13.9072423,12.3333333 13.5666667,12.3333333 L13.5666667,12.3333333 C13.2260911,12.3333333 12.95,12.0572423 12.95,11.7166667 L12.95,11.4083333 C12.95,10.900065 12.5332684,10.4833333 12.025,10.4833333 C11.5167316,10.4833333 11.1,10.900065 11.1,11.4083333 L11.1,11.7166667 C11.1,12.0572423 10.8239089,12.3333333 10.4833333,12.3333333 L10.4833333,12.3333333 C10.1427577,12.3333333 9.86666667,12.0572423 9.86666667,11.7166667 L9.86666667,11.1 C9.86666667,10.4207034 9.31263052,9.86666667 8.63333333,9.86666667 C7.95403677,9.86666667 7.4,10.4207034 7.4,11.1 L7.4,11.7166667 C7.4,12.0572423 7.12390893,12.3333333 6.78333333,12.3333333 L6.78333333,12.3333333 C6.44275774,12.3333333 6.16666667,12.0572423 6.16666667,11.7166667 L6.16666667,11.4083333 C6.16666667,10.900065 5.74993505,10.4833333 5.24166667,10.4833333 C4.73339828,10.4833333 4.31666667,10.900065 4.31666667,11.4083333 L4.31666667,11.7166667 C4.31666667,12.0572423 4.0405756,12.3333333 3.7,12.3333333 L3.7,12.3333333 C3.3594244,12.3333333 3.08333333,12.0572423 3.08333333,11.7166667 C3.08333333,11.3770184 2.80631495,11.1 2.46666667,11.1 C2.12701838,11.1 1.85,11.3770184 1.85,11.7166667 L1.85,12.025 C1.85,12.1952878 1.71195446,12.3333333 1.54166667,12.3333333 L1.54166667,12.3333333 C1.37137887,12.3333333 1.23333333,12.1952878 1.23333333,12.025 L1.23333333,3.27604167 C1.23815135,3.25917953 1.23574203,3.2326826 1.3296875,3.08333333 C1.4429038,2.90266912 1.65729167,2.63769547 2.00416667,2.3703125 C2.70032537,1.83313787 4.00110662,1.23333333 6.43645833,1.23333333 Z M5.24166667,3.08333333 C4.73339828,3.08333333 4.31666667,3.50006495 4.31666667,4.00833333 L4.31666667,4.00833333 C4.31666667,4.51919673 4.73080327,4.93333333 5.24166667,4.93333333 L5.24166667,4.93333333 C5.75253006,4.93333333 6.16666667,4.51919673 6.16666667,4.00833333 C6.16666667,3.50006495 5.74993505,3.08333333 5.24166667,3.08333333 Z M2.46666667,3.7 C2.12701838,3.7 1.85,3.97701838 1.85,4.31666667 L1.85,4.31666667 C1.85,4.65724226 2.12609107,4.93333333 2.46666667,4.93333333 L2.46666667,4.93333333 C2.80724226,4.93333333 3.08333333,4.65724226 3.08333333,4.31666667 C3.08333333,3.97701838 2.80631495,3.7 2.46666667,3.7 Z M8.63333333,6.16666667 C7.95403677,6.16666667 7.4,6.72070343 7.4,7.4 L7.4,7.63333333 C7.4,8.18561808 7.84771525,8.63333333 8.4,8.63333333 L8.86666667,8.63333333 C9.41895142,8.63333333 9.86666667,8.18561808 9.86666667,7.63333333 L9.86666667,7.4 C9.86666667,6.72070343 9.31263052,6.16666667 8.63333333,6.16666667 Z M5.24166667,6.78333333 C4.73339828,6.78333333 4.31666667,7.20006495 4.31666667,7.70833333 L4.31666667,7.70833333 C4.31666667,8.21919673 4.73080327,8.63333333 5.24166667,8.63333333 L5.24166667,8.63333333 C5.75253006,8.63333333 6.16666667,8.21919673 6.16666667,7.70833333 C6.16666667,7.20006495 5.74993505,6.78333333 5.24166667,6.78333333 Z M12.025,6.78333333 C11.5167316,6.78333333 11.1,7.20006495 11.1,7.70833333 L11.1,7.70833333 C11.1,8.21919673 11.5141366,8.63333333 12.025,8.63333333 L12.025,8.63333333 C12.5358634,8.63333333 12.95,8.21919673 12.95,7.70833333 C12.95,7.20006495 12.5332684,6.78333333 12.025,6.78333333 Z M2.46666667,7.4 C2.12701838,7.4 1.85,7.67701838 1.85,8.01666667 L1.85,8.01666667 C1.85,8.35724226 2.12609107,8.63333333 2.46666667,8.63333333 L2.46666667,8.63333333 C2.80724226,8.63333333 3.08333333,8.35724226 3.08333333,8.01666667 C3.08333333,7.67701838 2.80631495,7.4 2.46666667,7.4 Z M14.8,7.4 C14.4603517,7.4 14.1833333,7.67701838 14.1833333,8.01666667 L14.1833333,8.01666667 C14.1833333,8.35724226 14.4594244,8.63333333 14.8,8.63333333 L14.8,8.63333333 C15.1405756,8.63333333 15.4166667,8.35724226 15.4166667,8.01666667 C15.4166667,7.67701838 15.1396483,7.4 14.8,7.4 Z" id="Shape"></path>
                        </g>
                    </g>
                </g>
            </g>
            <g id="icon/filter/steak" transform="translate(75.850000, 31.450000)">
                <g>
                    <rect id="Rectangle-16" x="0" y="0" width="20.9666667" height="20.9666667"></rect>
                    <g id="Group-2-Copy-3" transform="translate(1.233333, 3.933333)" fill="#E5E5E5" fill-rule="nonzero">
                        <path d="M0,9.37780746 L1.23333333,9.37780746 C1.23333333,10.7528376 8.93790134,12.0352903 13.0605726,11.2537683 C16.2825143,10.6429948 17.2666667,9.48272443 17.2666667,7.16666667 L18.5,7.16666667 C18.5,10.0814594 17.0885489,11.7454954 13.2902808,12.4655213 C8.42677832,13.3874803 0,11.9848132 0,9.37780746 Z" id="Oval-3-Copy"></path>
                        <path d="M0,6.43962729 C0,4.90008493 1.4292675,3.01346766 3.75260123,3.01346766 C4.37452451,3.01346766 4.79681622,3.11003025 5.43460892,3.34394911 C5.50968206,3.37158488 5.50968206,3.37158488 5.58284508,3.39859152 C6.2032074,3.62705464 6.56140882,3.70789102 7.17466313,3.707727 C7.48440132,3.70764416 7.30375694,3.84731572 9.21703473,2.19543011 C10.6198386,0.984277453 11.7587544,0.379928329 13.174918,0.383345971 C16.1936224,0.390631038 18.5,2.14257249 18.5,4.32439364 C18.5,7.11404251 17.0741603,8.71551715 13.2823727,9.39609493 C8.41005493,10.2706142 0,8.94516477 0,6.43962729 Z M13.0644869,8.18216047 C16.283699,7.60435273 17.2666667,6.5003031 17.2666667,4.32439364 C17.2666667,2.90872362 15.5733543,1.62247106 13.1719416,1.61667571 C12.1266775,1.61415317 11.220764,2.09486302 10.0230288,3.12896357 C9.9186441,3.21908719 9.81252317,3.31253379 9.6776277,3.43268654 C9.65177901,3.45571023 9.41013738,3.67156177 9.34020381,3.73364212 C9.06344805,3.97931947 8.86911673,4.14449804 8.67743657,4.29270231 C8.12754032,4.71787396 7.66873432,4.94092824 7.17499298,4.94106029 C6.39322112,4.94126937 5.90182807,4.83037525 5.15662531,4.55593667 C5.08198143,4.52838432 5.08198143,4.52838432 5.00992971,4.50186045 C4.49626985,4.31346895 4.20471468,4.246801 3.75260123,4.246801 C2.86228954,4.246801 2.2154771,4.59388229 1.75990665,5.19523024 C1.43262388,5.62723986 1.23333333,6.18757199 1.23333333,6.43962729 C1.23333333,6.61079082 1.55674488,6.90825522 2.26717249,7.21279773 C3.05099593,7.54880319 4.18003133,7.8368999 5.51250538,8.04690173 C8.13660467,8.4604675 11.1964321,8.51745262 13.0644869,8.18216047 Z" id="Oval-3"></path>
                        <polygon id="Line-2" points="3.16093635 3.76614647 4.23906365 3.16718686 7.32239699 8.71718686 6.24426968 9.31614647"></polygon>
                        <polygon id="Line-2-Copy" points="6.84843657 4.35911505 7.95156343 3.80755162 10.4182301 8.74088495 9.31510323 9.29244838"></polygon>
                        <polygon id="Line-2-Copy-2" points="9.32529773 2.52862548 10.4080356 1.93804119 14.1080356 8.72137452 13.0252977 9.31195881"></polygon>
                        <polygon id="Line-2-Copy-3" points="11.7919644 1.29529215 12.8747023 0.704707853 16.5747023 7.48804119 15.4919644 8.07862548"></polygon>
                        <polygon id="Line" points="-1e-16 6.0875 1.23333333 6.0875 1.23333333 9.47916667 1.15171796e-16 9.47916667"></polygon>
                        <polygon id="Line-Copy" points="17.2666667 4.2375 18.5 4.2375 18.5 7.62916667 17.2666667 7.62916667"></polygon>
                    </g>
                </g>
            </g>
            <g id="icon/filter/noodle" transform="translate(130.093913, 91.854220) rotate(-11.000000) translate(-130.093913, -91.854220) translate(119.593913, 81.354220)">
                <g>
                    <rect id="Rectangle-16" x="0" y="0" width="20.9666667" height="20.9666667"></rect>
                    <g id="icons8-Noodles-Copy" transform="translate(3.700000, 3.700000)" fill="#E5E5E5" fill-rule="nonzero">
                        <path d="M14.7905117,0 L6.78333333,1.30352304 L6.78333333,2.46666667 L14.9693321,1.28346883 C15.306572,1.11951538 15.4531312,0.873912218 15.4090097,0.546659342 C15.3648882,0.219406467 15.1587222,0.0371866862 14.7905117,0 Z M5.49206583,0.619435214 C5.46558293,0.624223639 5.43910065,0.631405357 5.41502513,0.638587687 C5.12852989,0.703227436 4.92629806,0.959391913 4.93352078,1.25146682 L4.93352078,4.92874159 C4.93111341,5.14899502 5.04667445,5.35488441 5.2392762,5.46740473 C5.43187794,5.57753176 5.66781476,5.57753176 5.8604165,5.46740473 C6.05301824,5.35488441 6.16857928,5.14899502 6.16617192,4.92874159 L6.16617192,1.25146682 C6.17339464,1.07430675 6.10116867,0.9043284 5.97357018,0.784625139 C5.84356431,0.662528585 5.66781476,0.602676647 5.49206583,0.619435214 Z M3.58467881,0.616666667 C3.28380344,0.677462558 3.06958022,0.961176717 3.08402194,1.28542147 L3.08402194,4.89264435 C3.08161509,5.12569526 3.19715129,5.34354753 3.38971163,5.46260566 C3.58227196,5.57913145 3.81815806,5.57913145 4.0107184,5.46260566 C4.20327873,5.34354753 4.31881493,5.12569526 4.31640808,4.89264435 L4.31640808,1.28542147 C4.3212224,1.11063344 4.25863998,0.94091142 4.14310378,0.814253637 C4.02756758,0.687595206 3.86629815,0.616666667 3.70021501,0.616666667 C3.68095898,0.616666667 3.66170294,0.616666667 3.64244691,0.616666667 C3.62319088,0.616666667 3.60393484,0.616666667 3.58467881,0.616666667 Z M1.85958549,1.23611425 C1.83322524,1.24092408 1.80686559,1.24813789 1.78290155,1.25535232 C1.49773301,1.32028095 1.29643767,1.57759025 1.30362694,1.87097046 L1.30362694,2.40963634 L0,2.62125508 L0.153367876,3.58315843 L1.30362694,3.42925389 L1.30362694,3.8332533 L0.0766839378,3.8332533 L0.0766839378,4.83363278 L1.30362694,4.83363278 L1.30362694,7.41153376 L1.30362694,7.41153376 C0.626005032,7.41153376 0.0766839378,7.96085485 0.0766839378,8.63847676 C0.0766839378,8.65021172 0.0766839378,8.66194668 0.0766839378,8.67368164 C0.0766839378,8.80361643 0.0766839378,8.99851861 0.0766839378,9.25838819 C0.0766839378,11.4130517 1.6942359,13.1204304 3.75751295,13.4330487 L3.75751295,13.4330487 C3.75751295,13.8474195 4.09342682,14.1833333 4.50779757,14.1833333 L4.57667236,14.1833333 L10.7657715,14.1833333 L10.8669295,14.1833333 C11.3450496,14.1833333 11.7326425,13.7957404 11.7326425,13.3176203 C13.4891838,12.7765498 14.8,11.1918139 14.8,9.25838819 C14.8,8.99351689 14.8,8.79486342 14.8,8.66242778 C14.8,8.66154247 14.8,8.66065717 14.8,8.65977187 L14.8,8.65977187 C14.8,7.970389 14.2411448,7.41153376 13.5517619,7.41153376 L2.53056995,7.41153376 L2.53056995,1.87097046 C2.53775922,1.69301865 2.46586772,1.52228065 2.3388601,1.40204243 C2.20945627,1.27940021 2.03452057,1.21928079 1.85958549,1.23611425 Z M14.9146152,3.7 L6.78333333,3.7578125 L6.78333333,4.87552083 L14.9146152,4.93333333 C15.2584579,4.83853488 15.4256835,4.63297933 15.4162921,4.31666667 C15.4069007,4.000354 15.2396751,3.79479845 14.9146152,3.7 Z M1.23333333,8.63333333 L13.5666667,8.63333333 L13.5666667,9.25 C13.5666667,10.7844399 12.4610025,12.0490888 11.0036458,12.2947917 C10.8160786,12.3614113 10.6953348,12.428671 10.6414144,12.4965708 C10.5797098,12.5742729 10.5270161,12.7254159 10.4833333,12.95 L4.93333333,12.95 C4.8577639,12.7159229 4.78587466,12.5647799 4.71766561,12.4965708 C4.64883762,12.4277429 4.51517131,12.3733303 4.31666667,12.3333333 C2.60638052,12.3333333 1.23333333,10.9602868 1.23333333,9.25 L1.23333333,8.63333333 Z" id="Shape"></path>
                    </g>
                </g>
            </g>
            <g id="icon/filter/soup" transform="translate(59.030454, 122.541332) rotate(-10.000000) translate(-59.030454, -122.541332) translate(48.530454, 112.041332)">
                <g>
                    <rect id="Rectangle-16" x="0" y="0" width="20.9666667" height="20.9666667"></rect>
                    <g id="icons8-Cooking-Pot" transform="translate(1.233333, 3.083333)" fill="#E5E5E5" fill-rule="nonzero">
                        <path d="M8.63333333,0 C7.61920588,0 6.78333333,0.83587255 6.78333333,1.85 L5.55,1.85 C4.29498713,1.85 3.21582047,2.61601593 2.73645833,3.7 L1.23333333,3.7 L1.23333333,4.93333333 L2.46666667,4.93333333 L2.46666667,6.60989583 L0.770833333,6.1859375 L0.4625,7.38072917 L2.46666667,7.88177083 L2.46666667,12.3333333 C2.46666667,13.3474608 3.30253922,14.1833333 4.31666667,14.1833333 L14.1833333,14.1833333 C15.1974608,14.1833333 16.0333333,13.3474608 16.0333333,12.3333333 L16.0333333,7.88177083 L18.0375,7.38072917 L17.7291667,6.1859375 L16.0333333,6.60989583 L16.0333333,4.93333333 L17.2666667,4.93333333 L17.2666667,3.7 L15.7635417,3.7 C15.2841795,2.61601593 14.2050129,1.85 12.95,1.85 L11.7166667,1.85 C11.7166667,0.83587255 10.8807941,0 9.86666667,0 L8.63333333,0 Z M8.63333333,1.23333333 L9.86666667,1.23333333 C10.2159504,1.23333333 10.4833333,1.5007163 10.4833333,1.85 L8.01666667,1.85 C8.01666667,1.5007163 8.28404963,1.23333333 8.63333333,1.23333333 Z M5.55,3.08333333 L12.95,3.08333333 C13.4992188,3.08333333 13.9809896,3.32421875 14.3182292,3.7 L4.18177083,3.7 C4.51901042,3.32421875 5.00078125,3.08333333 5.55,3.08333333 Z M3.7,4.93333333 L14.8,4.93333333 L14.8,12.3333333 C14.8,12.682617 14.532617,12.95 14.1833333,12.95 L4.31666667,12.95 C3.96738297,12.95 3.7,12.682617 3.7,12.3333333 L3.7,4.93333333 Z" id="Shape"></path>
                    </g>
                </g>
            </g>
            <g id="icon/filter/desser" transform="translate(151.335373, 125.442872) rotate(13.000000) translate(-151.335373, -125.442872) translate(140.835373, 114.942872)">
                <g>
                    <rect id="Rectangle-16" x="0" y="0" width="20.9666667" height="20.9666667"></rect>
                    <g id="icons8-Confectionery" transform="translate(3.083333, 3.083333)" fill="#E5E5E5" fill-rule="nonzero">
                        <path d="M6.16666667,0 L6.16666667,0.616666667 C6.16666667,1.18515625 6.02454412,1.28632843 5.74270833,1.5609375 C5.60058578,1.69824203 5.41269547,1.85481802 5.24166667,2.10052083 C5.16699203,2.20651042 5.15976593,2.38476593 5.10677083,2.52447917 C4.46360662,2.58951838 3.86139338,2.75332047 3.39166667,3.14114583 C2.93880208,3.51451838 2.69550797,4.09023468 2.58229167,4.72135417 C1.06471385,4.9670576 0,6.19798162 0,7.70833333 C0,8.73691422 0.539583333,9.64505208 1.4453125,10.2135417 L2.3703125,13.875 C2.50761703,14.42181 3.0014326,14.8 3.56510417,14.8 L11.2348958,14.8 C11.798568,14.8 12.292383,14.42181 12.4296875,13.875 L13.3932292,10.0015625 C13.9255858,9.57037745 14.8,8.63815135 14.8,7.14947917 C14.8,4.87552083 12.9090496,3.36757843 10.9265625,3.16041667 C10.7194013,2.23782537 10.1557292,1.47903677 9.44270833,1.02135417 C8.58274755,0.469726717 7.60475245,0.183072917 6.95677083,0.0192708333 L6.89895833,0 L6.16666667,0 Z M7.20729167,1.42604167 C7.72278677,1.58502635 8.27200552,1.74401042 8.76822917,2.06197917 C9.43548162,2.49075552 9.86666667,2.99179718 9.86666667,3.7 L9.86666667,4.31666667 L10.4833333,4.31666667 C12.0033205,4.31666667 13.5666667,5.44641912 13.5666667,7.14947917 C13.5666667,7.89863297 13.2703774,8.39967463 12.9692708,8.7296875 C12.7910159,8.52252635 12.5742187,8.31536458 12.3333333,8.28645833 C11.7407555,8.21419302 11.299935,8.45507843 10.6953125,8.69114583 C9.48847672,9.16328125 7.78300797,9.86666667 5.45364583,9.86666667 C3.90475245,9.86666667 2.79908885,9.60169302 2.1390625,9.21145833 C1.47903677,8.82122427 1.23333333,8.3852212 1.23333333,7.70833333 C1.23333333,6.72552083 1.7367837,6.0703125 2.67864583,5.91614583 C2.87617218,6.42200552 3.1820962,6.86041667 3.62291667,7.13020833 C4.25644547,7.515625 5.0248701,7.71796875 5.76197917,7.84322917 C7.23619792,8.09375 8.671875,8.01666667 8.671875,8.01666667 L8.59479167,6.78333333 C8.59479167,6.78333333 7.25546875,6.84837255 5.9546875,6.62916667 C5.30429718,6.51835968 4.6852212,6.33769547 4.278125,6.08958333 C3.8710288,5.8414712 3.7,5.61744792 3.7,5.24166667 C3.7,4.67558578 3.88548162,4.35039093 4.18177083,4.1046875 C4.47806005,3.85898468 4.94056005,3.7 5.55,3.7 L6.16666667,3.7 L6.16666667,3.08333333 C6.16666667,2.93639338 6.1835288,2.89785172 6.24375,2.81354167 C6.3039712,2.72923162 6.42441422,2.60878922 6.590625,2.44739583 C6.80501287,2.24023468 7.04108088,1.87167953 7.20729167,1.42604167 Z M12.0635417,9.55833333 C12.0731771,9.60891912 12.0828125,9.61614583 12.0828125,9.75104167 L12.0828125,10.175 L11.2348958,13.5666667 L3.56510417,13.5666667 L2.87135417,10.8109375 C3.25917953,10.9121097 3.68313787,10.9771483 4.14322917,11.0229167 L4.31666667,12.3333333 L5.55,12.3333333 L5.3765625,11.1 C5.40306005,11.1 5.42714828,11.1 5.45364583,11.1 C5.91855453,11.1 6.3617837,11.068685 6.78333333,11.0229167 L6.78333333,12.3333333 L8.01666667,12.3333333 L8.01666667,10.8302083 C8.55625,10.7194013 9.05488297,10.5869142 9.50052083,10.4447917 L9.25,12.3333333 L10.4833333,12.3333333 L10.8109375,9.96302083 C10.9145184,9.92207047 11.0445962,9.8835288 11.1385417,9.84739583 C11.6636722,9.64264338 11.9792316,9.57760417 12.0635417,9.55833333 Z" id="Shape"></path>
                    </g>
                </g>
            </g>
            <g id="icon/filter/health" transform="translate(91.266667, 129.116667)">
                <g transform="translate(0.000000, 0.383333)">
                    <rect id="Rectangle-16" x="0" y="0.616666667" width="20.9666667" height="20.9666667"></rect>
                    <g id="icons8-broccoli" transform="translate(11.073178, 10.974219) rotate(-43.000000) translate(-11.073178, -10.974219) translate(3.073178, 3.474219)" fill="#E5E5E5" fill-rule="nonzero">
                        <path d="M15.4166667,5.81979167 C15.4166667,4.59368505 14.5976563,3.5265625 13.4534504,3.1796875 C12.9740889,1.6741538 11.526367,0.616666667 9.86666667,0.616666667 C9.1873701,0.616666667 8.52734375,0.8069663 7.95162745,1.1586587 C7.37591177,0.438411767 6.49186213,0 5.55,0 C4.0420576,0 2.78463542,1.08639338 2.51966177,2.51966177 C1.08639338,2.78463542 0,4.0420576 0,5.55 C0,7.25065135 1.3826826,8.63333333 3.08333333,8.63333333 C3.25436213,8.63333333 3.42298162,8.6140625 3.58919302,8.58515625 C4.64908885,9.81848958 5.55,12.3285159 5.55,14.1833333 L5.55,14.8 L10.4833333,14.8 L10.4833333,14.1833333 C10.4833333,12.2899743 11.2638021,10.326758 12.6753909,8.62610662 C14.142383,8.58274755 15.4166667,7.29401042 15.4166667,5.81979167 Z M9.27167953,13.5666667 L6.7592451,13.5666667 C6.6436201,12.1237629 6.15221385,10.5098309 5.47050797,9.21386703 C5.59817708,9.23072917 5.7258462,9.25 5.85833333,9.25 C6.42923162,9.25 6.95917953,9.0765625 7.4,8.78027328 L7.4,11.7166667 L8.63333333,11.7166667 L8.63333333,8.76582047 C9.0789712,9.06933578 9.61132843,9.25 10.175,9.25 C10.3749351,9.25 10.5676434,9.22350245 10.757943,9.18255208 C9.90039093,10.5748701 9.38489583,12.0755858 9.27167953,13.5666667 Z M12.603125,7.4 C12.4850913,7.4 12.3574222,7.35904963 12.1478517,7.25065135 L11.6973958,7.02181005 L11.3842451,7.41927083 C11.0855472,7.7998701 10.6447267,8.01666667 10.175,8.01666667 C9.4234375,8.01666667 8.77304718,7.44576838 8.65742218,6.69179718 L8.58033885,6.16666667 L7.44817708,6.16666667 L7.37109375,6.69420588 C7.26028677,7.4602212 6.62434927,8.01666667 5.85833333,8.01666667 C5.3765625,8.01666667 4.93092463,7.79264338 4.63463542,7.3975913 L4.3311201,6.9977212 L3.8758462,7.21451838 C3.61568995,7.3373701 3.3507163,7.4 3.08333333,7.4 C2.06438787,7.4 1.23333333,6.56894547 1.23333333,5.55 C1.23333333,4.53105453 2.06438787,3.7 3.08333333,3.7 L3.7,3.7 L3.7,3.08333333 C3.7,2.06438787 4.53105453,1.23333333 5.55,1.23333333 C6.26061213,1.23333333 6.91100245,1.65006495 7.21692708,2.29563787 C7.25306005,2.41126287 7.4,2.91471385 7.4,3.7 L8.63333333,3.7 C8.63333333,3.08333333 8.56106802,2.60878922 8.48880208,2.29082047 C8.8983076,2.00898468 9.37285172,1.85 9.86666667,1.85 C11.0831379,1.85 12.1237629,2.67623713 12.3453774,3.815625 L12.4296875,4.25162745 L12.8656899,4.30943995 C13.6052083,4.41061213 14.1833333,5.07545588 14.1833333,5.81979167 C14.1833333,6.6460288 13.4293621,7.4 12.603125,7.4 Z" id="Shape"></path>
                    </g>
                </g>
            </g>
            <g id="Group" transform="translate(91.266667, 168.350000)" fill="#E5E5E5" fill-rule="nonzero">
                <g id="icons8-Kremlin">
                    <path d="M14.1833333,0.616666667 L13.6726562,1.62356802 L12.5164062,1.7873701 L13.3546875,2.58470037 L13.1595705,3.7 L13.9833983,3.27604167 L11.1144534,9.49329412 L10.3604816,9.11510417 L9.25,10.2279951 L9.25,15.4166667 L7.4,15.4166667 L7.4,16.886068 L7.4,23.4333333 L20.9666667,23.4333333 L20.9666667,16.886068 L20.9666667,15.4166667 L19.1166667,15.4166667 L19.1166667,10.2279951 L18.0061851,9.11510417 L17.6063149,9.31503922 L17.2522139,9.49329412 L14.3832684,3.27604167 L15.2070962,3.7 L15.0119792,2.58470037 L15.8502604,1.7873701 L14.6940104,1.62356802 L14.1833333,0.616666667 Z M14.1833333,5.78847672 L15.8478517,9.39212255 L15.4166667,9.17773468 L14.1833333,9.79440135 L12.95,9.17773468 L12.5188149,9.39212255 L14.1833333,5.78847672 Z M12.95,10.5555993 L14.1833333,11.1722659 L15.4166667,10.5555993 L16.65,11.1722659 L17.7604816,10.6182292 L17.8833333,10.7386722 L17.8833333,15.4166667 L10.4833333,15.4166667 L10.4833333,10.7386722 L10.6061851,10.6182292 L11.7166667,11.1722659 L12.95,10.5555993 Z M8.63333333,16.65 L19.7333333,16.65 L19.7333333,22.2 L17.2666667,22.2 L17.2666667,21.5833333 C17.2666667,19.8875 15.8791667,18.5 14.1833333,18.5 C12.4875,18.5 11.1,19.8875 11.1,21.5833333 L11.1,22.2 L8.63333333,22.2 L8.63333333,16.65 Z M7.4,18.2639326 L7.4,22.2 L7.4,18.2639326 Z M20.9666667,22.2 L20.9666667,18.2639326 L20.9666667,22.2 Z M14.1833333,19.7333333 C15.2119142,19.7333333 16.0333333,20.5547524 16.0333333,21.5833333 L16.0333333,22.2 L12.3333333,22.2 L12.3333333,21.5833333 C12.3333333,20.5547524 13.1547524,19.7333333 14.1833333,19.7333333 Z" id="Shape"></path>
                </g>
            </g>
            <g id="Group-2" transform="translate(96.200000, 0.000000)" fill="#E5E5E5">
                <path d="M1.77635684e-15,1.85041532 L1.54062837,0.616666667 L3.7,1.85041532 L3.7,6.78374865 L1.77635684e-15,6.78374865 L1.77635684e-15,1.85041532 Z M1.23333333,5.55041532 L2.46666667,5.55041532 L2.46666667,2.56619767 L1.65695489,2.10357197 L1.23333333,2.44281181 L1.23333333,5.55041532 Z" id="Rectangle" fill-rule="nonzero"></path>
                <path d="M14.8,1.85041532 L16.3406284,0.616666667 L18.5,1.85041532 L18.5,6.78374865 L14.8,6.78374865 L14.8,1.85041532 Z M16.0333333,5.55041532 L17.2666667,5.55041532 L17.2666667,2.56619767 L16.4569549,2.10357197 L16.0333333,2.44281181 L16.0333333,5.55041532 Z" id="Rectangle-Copy" fill-rule="nonzero"></path>
                <rect id="Rectangle-2" x="3.7" y="5.55" width="11.1" height="1.23333333"></rect>
                <rect id="Rectangle-2-Copy" x="3.08333333" y="0" width="1.23333333" height="5.55"></rect>
                <rect id="Rectangle-2-Copy-2" x="14.1833333" y="0" width="1.23333333" height="5.55"></rect>
                <path d="M12.3333333,5.55 L11.1,5.55 C11.1,3.83370759 10.6011713,3.08333333 9.25,3.08333333 C7.89882872,3.08333333 7.4,3.83370759 7.4,5.55 L6.16666667,5.55 C6.16666667,3.23333129 7.08626828,1.85 9.25,1.85 C11.4137317,1.85 12.3333333,3.23333129 12.3333333,5.55 Z" id="Oval" fill-rule="nonzero"></path>
            </g>
            <g id="icon/filter/breakfast" transform="translate(175.720886, 15.393913) rotate(11.000000) translate(-175.720886, -15.393913) translate(165.220886, 4.893913)">
                <g>
                    <rect id="Rectangle-16" x="0" y="0" width="20.9666667" height="20.9666667"></rect>
                    <g id="icons8-Toaster" transform="translate(3.083333, 3.083333)" fill="#E5E5E5" fill-rule="nonzero">
                        <path d="M5.55,0 C4.11914093,0 3.1748701,0.0433596833 2.4859375,0.211979167 C2.1414712,0.296289217 1.84277328,0.3998701 1.59947917,0.6359375 C1.35618505,0.872005517 1.23333333,1.23574203 1.23333333,1.54166667 C1.23333333,2.0836587 1.4983076,2.50761703 1.75364583,2.73645833 C1.79941422,2.7774087 1.80423162,2.76295588 1.85,2.79427083 L1.85,4.58645833 C0.766015933,5.06582047 0,6.14498713 0,7.4 L0,13.5666667 L14.8,13.5666667 L14.8,9.86666667 L14.8,8.63333333 L14.8,7.4 C14.8,6.14498713 14.0339847,5.06582047 12.95,4.58645833 L12.95,3.37239583 C13.2414712,3.14596385 13.5666667,2.80149755 13.5666667,2.15833333 C13.5666667,1.85722672 13.4414062,1.4983076 13.2005208,1.271875 C12.9596354,1.04544302 12.6561201,0.937044117 12.3140625,0.847916667 C11.6660809,0.681705883 10.7699871,0.621484683 9.46197917,0.616666667 C9.22832047,0.414322917 8.93684927,0.31556005 8.6140625,0.23125 C7.92753922,0.0554038 6.98567708,0 5.55,0 Z M5.55,1.23333333 C6.94954412,1.23333333 7.85045588,1.30800797 8.30572917,1.42604167 C8.51770833,1.48144547 8.6116538,1.52480453 8.63333333,1.54166667 C8.63333333,1.8451826 8.40208333,1.88854167 8.40208333,1.88854167 L8.01666667,2.04270833 L8.01666667,4.31666667 L3.08333333,4.31666667 L3.08333333,2.00416667 L2.64010417,1.86927083 C2.64010417,1.86927083 2.61601593,1.87890625 2.56302083,1.83072917 C2.51002635,1.78255208 2.46666667,1.73919302 2.46666667,1.54166667 C2.46666667,1.47662745 2.45943995,1.52721385 2.46666667,1.52239583 C2.47389338,1.51757843 2.54856802,1.46217463 2.775,1.40677083 C3.22786458,1.29596385 4.14563787,1.23333333 5.55,1.23333333 Z M9.828125,1.86927083 C10.8928388,1.88854167 11.6179038,1.94394547 12.0057292,2.04270833 C12.2177083,2.09811213 12.3116538,2.1414712 12.3333333,2.15833333 C12.3333333,2.46184927 12.1020833,2.50520833 12.1020833,2.50520833 L11.7166667,2.659375 L11.7166667,4.31666667 L9.25,4.31666667 L9.25,2.75572917 C9.48606802,2.57265625 9.73899755,2.30527328 9.828125,1.86927083 Z M4.93333333,2.46666667 C4.59368505,2.46666667 4.31666667,2.74368505 4.31666667,3.08333333 C4.31666667,3.42298162 4.59368505,3.7 4.93333333,3.7 C5.27298162,3.7 5.55,3.42298162 5.55,3.08333333 C5.55,2.74368505 5.27298162,2.46666667 4.93333333,2.46666667 Z M6.475,3.08333333 C6.3039712,3.08333333 6.16666667,3.22063787 6.16666667,3.39166667 C6.16666667,3.56269547 6.3039712,3.7 6.475,3.7 C6.6460288,3.7 6.78333333,3.56269547 6.78333333,3.39166667 C6.78333333,3.22063787 6.6460288,3.08333333 6.475,3.08333333 Z M10.175,3.08333333 C10.0039712,3.08333333 9.86666667,3.22063787 9.86666667,3.39166667 C9.86666667,3.56269547 10.0039712,3.7 10.175,3.7 C10.3460288,3.7 10.4833333,3.56269547 10.4833333,3.39166667 C10.4833333,3.22063787 10.3460288,3.08333333 10.175,3.08333333 Z M3.08333333,5.55 L11.7166667,5.55 C12.7380208,5.55 13.5666667,6.37864583 13.5666667,7.4 L13.5666667,12.3333333 L1.23333333,12.3333333 L1.23333333,7.4 C1.23333333,6.37864583 2.06197917,5.55 3.08333333,5.55 Z" id="Shape"></path>
                    </g>
                </g>
            </g>
            <g id="icon/filter/garlic" transform="translate(136.061618, 34.920221) rotate(-14.000000) translate(-136.061618, -34.920221) translate(126.561618, 26.420221)">
                <g id="Group" transform="translate(0.466667, 0.083333)" fill="#E5E5E5" fill-rule="nonzero">
                    <path d="M5.02784566,3.24842089 C4.81765696,2.98044244 4.8645048,2.59281138 5.13248325,2.38262268 C5.40046169,2.17243398 5.78809275,2.21928182 5.99828145,2.48726026 C7.69248434,4.64727099 7.82494727,6.41388638 6.13871774,7.44562356 C4.48431278,8.45788855 1.87108072,12.1535197 2.15066523,13.3405533 C2.38778763,14.3473052 3.01762914,14.5770549 4.6399292,14.5770549 C5.67053585,14.5770549 6.87524771,13.1428977 7.07138019,10.784544 C7.09960671,10.4451401 7.39763005,10.192881 7.73703394,10.2211076 C8.07643783,10.2493341 8.32869692,10.5473574 8.3004704,10.8867613 C8.05589548,13.8276008 6.39032667,15.8103882 4.6399292,15.8103882 C2.49282415,15.8103882 1.36873177,15.4003487 0.95018112,13.6233058 C0.516815746,11.7833639 3.43802856,7.65218663 5.49502218,6.39359356 C6.39831088,5.84090691 6.32823621,4.90634364 5.02784566,3.24842089 Z" id="Path-20"></path>
                    <path d="M4.66123318,15.8627343 C4.32084952,15.8513018 4.05418194,15.5660984 4.06561446,15.2257148 C4.07704699,14.8853311 4.36225035,14.6186635 4.70263401,14.6300961 C7.89819677,14.737426 9.86547585,14.737426 10.5285319,14.636738 C11.2556966,14.5263148 12.1965695,12.3390701 11.7232036,11.2495551 C11.3228034,10.3279803 10.8336582,9.67067901 10.2637322,9.26538312 C9.9861818,9.06800655 9.92118807,8.68300216 10.1185646,8.40545176 C10.3159412,8.12790136 10.7009456,8.06290763 10.978496,8.2602842 C11.7476922,8.80728866 12.3703335,9.6439788 12.8543843,10.7580865 C13.628638,12.5401352 12.3062643,15.6142539 10.7136963,15.8560924 C9.94248042,15.973205 7.95030583,15.973205 4.66123318,15.8627343 Z" id="Path-24"></path>
                    <path d="M11.1721581,6.40392595 C11.168068,6.4007758 11.1641779,6.39826723 11.160625,6.39655708 C11.1618093,6.39712713 11.1630335,6.39769823 11.1642986,6.39827049 L11.1721581,6.40392595 Z M11.5480394,6.47621707 C13.7180855,6.78418215 14.9662497,7.41319565 16.5332115,9.78178528 C18.5324844,12.8038481 18.0436393,15.0112043 15.0469871,15.8726527 L14.9634912,15.8966553 L14.8766138,15.8966553 L10.4463216,15.8966553 L10.4463216,14.6633219 L14.7876862,14.6633219 C16.818796,14.0496714 17.0640762,12.8195519 15.5045977,10.462274 C14.1606528,8.43079235 13.2267325,7.96014235 11.3747456,7.69731508 C10.5395303,7.57878435 10.1411442,7.38702456 10.0245209,6.71507036 C9.99556995,6.54826219 9.98068796,6.4843478 9.86868139,6.02699994 C9.49195031,4.48872274 9.52049168,3.56059948 10.3179727,2.45642212 L11.317802,3.17853882 C10.786343,3.91438696 10.767906,4.51393381 11.0666129,5.73362106 C11.1693991,6.15332017 11.1964936,6.26642685 11.224425,6.41834714 C11.2877172,6.43514049 11.3894071,6.45370455 11.5480394,6.47621707 Z" id="Path-27"></path>
                    <path d="M7.3006829,0.404160662 C7.64123035,0.40853905 7.91374922,0.68815669 7.90937083,1.02870414 C7.90499244,1.36925159 7.6253748,1.64177046 7.28482735,1.63739207 C6.94370147,1.63300625 6.52137117,1.87884402 6.26830716,2.22893588 C6.07258517,2.49970009 6.06712014,2.64890157 6.14701962,2.70768505 C7.07022477,3.38690371 7.81536161,3.58028427 8.77365458,3.25402015 C9.57041965,2.98275043 10.118575,2.66120013 10.4231362,2.30959832 C10.6461225,2.05217097 11.0355747,2.02425099 11.2930021,2.24723729 C11.5504295,2.4702236 11.5783494,2.85967583 11.3553631,3.11710318 C10.8870836,3.65771014 10.1573418,4.08577984 9.17115336,4.42154138 C7.7795512,4.89533162 6.63590254,4.59852786 5.41613143,3.70112029 C4.68936748,3.16642697 4.72248999,2.26214538 5.26876751,1.50641834 C5.74274033,0.850718507 6.5269811,0.394213247 7.3006829,0.404160662 Z" id="Path-29"></path>
                    <path d="M10.947545,5.44014242 C11.2790544,5.36208333 11.6110753,5.56754543 11.6891344,5.89905488 C11.7671935,6.23056432 11.5617314,6.56258523 11.230222,6.64064433 C8.45126026,7.29499445 6.36809916,7.14675444 4.99426528,6.1282006 C4.72067898,5.92536503 4.66332417,5.53914879 4.86615975,5.26556248 C5.06899532,4.99197618 5.45521156,4.93462138 5.72879787,5.13745695 C6.75197463,5.89603528 8.48704812,6.019505 10.947545,5.44014242 Z" id="Path-30"></path>
                </g>
                <g transform="translate(2.000000, 1.000000)" id="icons8-Garlic">
                    <g transform="translate(0.083333, 0.083333)"></g>
                </g>
            </g>
            <g id="icon/filter/plov" transform="translate(37.730026, 165.386956) rotate(12.000000) translate(-37.730026, -165.386956) translate(27.230026, 154.886956)">
                <g>
                    <rect id="Rectangle-16" x="0" y="0" width="20.9666667" height="20.9666667"></rect>
                    <g id="icons8-Rice-Bowl-Filled" transform="translate(2.466667, 4.933333)" fill="#E5E5E5" fill-rule="nonzero">
                        <path d="M9.78958333,0.69375 C9.61373713,0.640755517 9.4186201,0.611849267 9.21145833,0.616666667 C8.81158885,0.2264326 8.27441422,0 7.70833333,0 C6.9904951,0 6.33046875,0.363737133 5.93541667,0.925 C5.64153677,0.729882967 5.29707047,0.616666667 4.93333333,0.616666667 C4.12877635,0.616666667 3.43261703,1.12975245 3.1796875,1.85 C2.13183578,1.78496078 1.23333333,2.64492218 1.23333333,3.7 L0,3.7 L0,4.31666667 C0,4.3913413 0.0939454667,11.7166667 8.01666667,11.7166667 C15.9393879,11.7166667 16.0333333,4.3913413 16.0333333,4.31666667 L16.0333333,3.7 L14.8,3.7 C14.8,2.86653677 14.2483725,2.15833333 13.4895833,1.92708333 C13.4438149,1.77773468 13.376367,1.63561213 13.296875,1.503125 L12.3333333,0.732291667 C12.140625,0.66484375 11.9334638,0.616666667 11.7166667,0.616666667 C11.526367,0.616666667 11.3481121,0.66002635 11.1770833,0.713020833 L9.78958333,0.69375 Z M7.70833333,1.23333333 C8.00462255,1.23333333 8.28645833,1.37304718 8.45989583,1.61875 L8.71041667,1.965625 L9.11510417,1.86927083 C9.17291667,1.85481802 9.20904963,1.85 9.25,1.85 C9.58964828,1.85 9.86666667,2.12701838 9.86666667,2.46666667 L11.1,2.46666667 C11.1,2.12701838 11.3770184,1.85 11.7166667,1.85 C12.056315,1.85 12.3333333,2.12701838 12.3333333,2.46666667 L12.3333333,3.08333333 L12.95,3.08333333 C13.2896483,3.08333333 13.5666667,3.36035172 13.5666667,3.7 L2.46666667,3.7 C2.46666667,3.36035172 2.74368505,3.08333333 3.08333333,3.08333333 C3.17246078,3.08333333 3.25436213,3.10742218 3.37239583,3.1796875 L3.73854167,3.39166667 L4.39375,2.92916667 L4.3359375,2.54375 C4.3311201,2.51725245 4.31666667,2.49557292 4.31666667,2.46666667 C4.31666667,2.12701838 4.59368505,1.85 4.93333333,1.85 C5.15494792,1.85 5.35970037,1.97766912 5.47291667,2.17760417 L5.665625,2.52447917 L6.08958333,2.4859375 L6.70625,2.46666667 L6.80260417,1.965625 C6.88932292,1.53684927 7.26992218,1.23333333 7.70833333,1.23333333 Z M6.475,3.7 C6.6460288,3.7 6.78333333,3.56269547 6.78333333,3.39166667 C6.78333333,3.22063787 6.6460288,3.08333333 6.475,3.08333333 C6.3039712,3.08333333 6.16666667,3.22063787 6.16666667,3.39166667 C6.16666667,3.56269547 6.3039712,3.7 6.475,3.7 Z M10.7916667,3.7 C10.9626955,3.7 11.1,3.56269547 11.1,3.39166667 C11.1,3.22063787 10.9626955,3.08333333 10.7916667,3.08333333 C10.6206379,3.08333333 10.4833333,3.22063787 10.4833333,3.39166667 C10.4833333,3.56269547 10.6206379,3.7 10.7916667,3.7 Z M7.70833333,2.46666667 C7.53730453,2.46666667 7.4,2.6039712 7.4,2.775 C7.4,2.9460288 7.53730453,3.08333333 7.70833333,3.08333333 C7.87936213,3.08333333 8.01666667,2.9460288 8.01666667,2.775 C8.01666667,2.6039712 7.87936213,2.46666667 7.70833333,2.46666667 Z M1.29114583,4.93333333 L14.7614583,4.93333333 C14.5591146,6.50390625 13.491992,10.4833333 8.01666667,10.4833333 C2.5413413,10.4833333 1.49348958,6.50390625 1.29114583,4.93333333 Z" id="Shape"></path>
                    </g>
                </g>
            </g>
            <g id="icon/filter/detox" transform="translate(197.453623, 125.913359) rotate(-12.000000) translate(-197.453623, -125.913359) translate(186.953623, 115.413359)">
                <g>
                    <rect id="Rectangle-16" x="0" y="0" width="20.9666667" height="20.9666667"></rect>
                    <g id="icons8-Coconut-Cocktail" transform="translate(3.083333, 2.466667)" fill="#E5E5E5" fill-rule="nonzero">
                        <path d="M11.3119792,0 L11.1578125,0.366145833 L9.84739583,3.2375 C9.27649755,3.14355453 8.6694663,3.08333333 8.01666667,3.08333333 C7.3445962,3.08333333 6.71347672,3.13632843 6.128125,3.2375 C5.50904963,2.39681005 4.509375,1.85 3.39166667,1.85 C1.52480453,1.85 0,3.37480453 0,5.24166667 C0,6.59544302 0.8069663,7.76373713 1.965625,8.30572917 C1.89576838,8.96816422 1.85,9.70045588 1.85,10.4833333 C1.85,13.5835288 4.65390625,16.0333333 8.01666667,16.0333333 C11.3794271,16.0333333 14.1833333,13.5835288 14.1833333,10.4833333 C14.1833333,7.66497427 13.5473958,5.3765625 13.5473958,5.3765625 L13.4895833,5.39583333 C13.2414712,4.59127635 12.3453774,3.9336587 11.0614583,3.5265625 L12.1020833,1.23333333 L14.8,1.23333333 L14.8,0 L11.3119792,0 Z M3.39166667,3.08333333 C3.91679718,3.08333333 4.38652328,3.27845037 4.75989583,3.584375 C5.0899087,3.85898468 5.33079412,4.2203125 5.45364583,4.64427083 C5.50664093,4.83457047 5.55,5.03450552 5.55,5.24166667 L6.78333333,5.24166667 C6.78333333,4.95260417 6.73515625,4.6804038 6.66770833,4.41302083 C7.08203125,4.36002635 7.53489583,4.31666667 8.01666667,4.31666667 C8.48880208,4.31666667 8.91998713,4.36243505 9.32708333,4.41302083 L8.07447917,7.14947917 L8.57552083,7.38072917 C8.39244792,7.39036458 8.2117837,7.4 8.01666667,7.4 C5.38138052,7.4 3.7,6.48704412 3.7,5.85833333 C3.7,5.54277328 4.12154963,5.16217463 4.87552083,4.85625 C4.76230453,4.42506495 4.47565135,4.06855453 4.08541667,3.8734375 C3.28085968,4.27089828 2.73164093,4.7936201 2.54375,5.39583333 L2.4859375,5.3765625 C2.4859375,5.3765625 2.30286458,6.0076826 2.1390625,6.9953125 C1.59466177,6.60266912 1.23333333,5.96673162 1.23333333,5.24166667 C1.23333333,4.0420576 2.1920576,3.08333333 3.39166667,3.08333333 Z M10.5604167,4.64427083 C11.6853517,4.9670576 12.3333333,5.46809927 12.3333333,5.85833333 C12.3333333,6.37382843 11.1987629,7.06516912 9.34635417,7.30364583 L10.5604167,4.64427083 Z M3.353125,7.4 C4.32389338,8.15638052 6.0076826,8.63333333 8.01666667,8.63333333 C8.91276042,8.63333333 9.72936213,8.53697917 10.4640625,8.36354167 C10.3508462,10.4158854 9.90520833,11.4854167 9.90520833,11.4854167 L11.0614583,11.9479167 C11.0614583,11.9479167 11.6203125,10.4761066 11.6973958,7.95885417 C12.0755858,7.79505208 12.408008,7.61197917 12.6802083,7.4 C12.8126955,8.23105453 12.95,9.30058578 12.95,10.4833333 C12.95,12.8319663 10.7868493,14.8 8.01666667,14.8 C5.24648468,14.8 3.08333333,12.8319663 3.08333333,10.4833333 C3.08333333,9.30058578 3.22063787,8.23105453 3.353125,7.4 Z" id="Shape"></path>
                    </g>
                </g>
            </g>
            <g id="icon/filter/detox-copy" transform="translate(12.453623, 125.913359) rotate(-12.000000) translate(-12.453623, -125.913359) translate(1.953623, 115.413359)">
                <g id="icon/filter/detox">
                    <rect id="Rectangle-16" x="0" y="0" width="20.9666667" height="20.9666667"></rect>
                    <g id="icons8-Coconut-Cocktail" transform="translate(3.083333, 2.466667)" fill="#E5E5E5" fill-rule="nonzero">
                        <path d="M11.3119792,0 L11.1578125,0.366145833 L9.84739583,3.2375 C9.27649755,3.14355453 8.6694663,3.08333333 8.01666667,3.08333333 C7.3445962,3.08333333 6.71347672,3.13632843 6.128125,3.2375 C5.50904963,2.39681005 4.509375,1.85 3.39166667,1.85 C1.52480453,1.85 0,3.37480453 0,5.24166667 C0,6.59544302 0.8069663,7.76373713 1.965625,8.30572917 C1.89576838,8.96816422 1.85,9.70045588 1.85,10.4833333 C1.85,13.5835288 4.65390625,16.0333333 8.01666667,16.0333333 C11.3794271,16.0333333 14.1833333,13.5835288 14.1833333,10.4833333 C14.1833333,7.66497427 13.5473958,5.3765625 13.5473958,5.3765625 L13.4895833,5.39583333 C13.2414712,4.59127635 12.3453775,3.9336587 11.0614583,3.5265625 L12.1020833,1.23333333 L14.8,1.23333333 L14.8,0 L11.3119792,0 Z M3.39166667,3.08333333 C3.91679718,3.08333333 4.38652328,3.27845037 4.75989583,3.584375 C5.0899087,3.85898468 5.33079412,4.2203125 5.45364583,4.64427083 C5.50664093,4.83457047 5.55,5.03450552 5.55,5.24166667 L6.78333333,5.24166667 C6.78333333,4.95260417 6.73515625,4.6804038 6.66770833,4.41302083 C7.08203125,4.36002635 7.53489583,4.31666667 8.01666667,4.31666667 C8.48880208,4.31666667 8.91998713,4.36243505 9.32708333,4.41302083 L8.07447917,7.14947917 L8.57552083,7.38072917 C8.39244792,7.39036458 8.2117837,7.4 8.01666667,7.4 C5.38138052,7.4 3.7,6.48704412 3.7,5.85833333 C3.7,5.54277328 4.12154963,5.16217463 4.87552083,4.85625 C4.76230453,4.42506495 4.47565135,4.06855453 4.08541667,3.8734375 C3.28085968,4.27089828 2.73164093,4.7936201 2.54375,5.39583333 L2.4859375,5.3765625 C2.4859375,5.3765625 2.30286458,6.0076826 2.1390625,6.9953125 C1.59466177,6.60266912 1.23333333,5.96673162 1.23333333,5.24166667 C1.23333333,4.0420576 2.1920576,3.08333333 3.39166667,3.08333333 Z M10.5604167,4.64427083 C11.6853517,4.9670576 12.3333333,5.46809927 12.3333333,5.85833333 C12.3333333,6.37382843 11.1987629,7.06516912 9.34635417,7.30364583 L10.5604167,4.64427083 Z M3.353125,7.4 C4.32389338,8.15638052 6.0076826,8.63333333 8.01666667,8.63333333 C8.91276042,8.63333333 9.72936213,8.53697917 10.4640625,8.36354167 C10.3508462,10.4158854 9.90520833,11.4854167 9.90520833,11.4854167 L11.0614583,11.9479167 C11.0614583,11.9479167 11.6203125,10.4761066 11.6973958,7.95885417 C12.0755858,7.79505208 12.408008,7.61197917 12.6802083,7.4 C12.8126955,8.23105453 12.95,9.30058578 12.95,10.4833333 C12.95,12.8319663 10.7868493,14.8 8.01666667,14.8 C5.24648468,14.8 3.08333333,12.8319663 3.08333333,10.4833333 C3.08333333,9.30058578 3.22063787,8.23105453 3.353125,7.4 Z" id="Shape"></path>
                    </g>
                </g>
            </g>
            <g id="icon/filter/baking" transform="translate(158.483333, 60.433333)">
                <g>
                    <rect id="Rectangle-16" x="0" y="0" width="20.9666667" height="20.9666667"></rect>
                    <g id="icons8-Croissant" transform="translate(3.083333, 3.083333)" fill="#E5E5E5" fill-rule="nonzero">
                        <path d="M12.9933597,0 C12.3791017,0.0024087 11.8467451,0.3420576 11.5335937,0.814193017 L11.5552733,0.78287745 C11.1505858,1.31764338 10.642318,1.94635417 10.1075521,2.58710968 C10.0858725,2.57988297 10.0690104,2.57024755 10.0401042,2.56061213 L10.0376955,2.56061213 C9.69322917,2.45221385 9.32949203,2.43776042 8.98020833,2.51484375 C8.62851593,2.59192708 8.29609375,2.76295588 8.02389338,3.02552083 L7.09166667,3.92161458 C6.74720037,3.78912745 6.36419302,3.70722672 5.96432292,3.7 C5.39824203,3.69036458 4.77434927,3.84453125 4.30943995,4.30943995 C3.84693995,4.77193995 3.69277328,5.39583333 3.7,5.96432292 C3.70481802,6.3617837 3.78912745,6.74479167 3.92402328,7.09166667 L3.02552083,8.02389338 C2.50039093,8.57070343 2.34622427,9.35117218 2.56061213,10.0376955 L2.56061213,10.0401042 C2.57024755,10.0690104 2.57988297,10.0858726 2.58710968,10.1075521 C1.94635417,10.642318 1.31764338,11.1505858 0.78287745,11.5552733 L0.814193017,11.5335938 C0.3420576,11.8467451 0.0024087,12.3791017 2.89686962e-16,12.9933597 C-0.0024087,14.0195312 0.905729167,14.7975913 1.93431005,14.8 L1.94635417,14.8 C2.85208333,14.8 3.78431005,14.6097004 4.71412745,14.2965496 C5.0875,14.6916017 5.6054038,14.8 6.01972672,14.8 C6.33528677,14.8 6.65566422,14.7180993 6.94472672,14.5591146 C7.284375,14.368815 7.75651042,14.0412108 8.66223958,13.3089191 C9.52942708,13.7401042 10.6134118,13.607617 11.33125,12.8873701 L12.8897788,11.33125 C13.607617,10.6134118 13.7425129,9.52942708 13.3089191,8.66223958 C14.0412108,7.75651042 14.3688149,7.284375 14.5591146,6.94472672 C14.7180993,6.65566422 14.8,6.33528677 14.8,6.01972672 C14.8,5.6054038 14.6916017,5.0875 14.2965496,4.71412745 C14.6097004,3.78431005 14.8,2.85208333 14.8,1.94635417 L14.8,1.93431005 C14.7975913,0.905729167 14.0195312,0 12.9957684,0 L12.9933597,0 Z M12.9957684,1.23333333 C13.2800129,1.23333333 13.5666667,1.5055337 13.5666667,1.93671875 L13.5666667,1.94635417 C13.5666667,2.6015625 13.443815,3.31217463 13.2222004,4.0420576 C12.7837892,3.80839828 12.2947917,3.57233088 11.8202476,3.3483076 C11.6179038,3.25195343 11.4637371,3.18450552 11.2806642,3.10260417 C11.7383462,2.54856802 12.176758,2.00657537 12.5380858,1.52721385 L12.5501305,1.51276042 L12.5621746,1.49589828 C12.6802083,1.31764338 12.8295576,1.23333333 12.9957684,1.23333333 Z M9.46197917,3.7 C9.53183578,3.70481802 9.60169302,3.71686213 9.66914093,3.73854167 C9.61373713,3.71927083 9.7100913,3.7529951 9.80403677,3.79394547 C9.89798162,3.83248713 10.0256513,3.88789093 10.175,3.95292953 C10.4785159,4.08782537 10.8759767,4.26608088 11.2927083,4.46360662 C12.1285809,4.85625 13.0728517,5.34283885 13.4221354,5.58854167 C13.4992188,5.64394547 13.5666667,5.80052083 13.5666667,6.01972672 C13.5666667,6.128125 13.5401691,6.23652328 13.4799479,6.34251287 C13.32819,6.61953125 13.0559896,7.00494792 12.4778646,7.72760417 C12.3911458,7.65774755 12.3188805,7.59993505 12.2056642,7.5108076 C11.8250649,7.21210968 11.3047525,6.80983088 10.7386722,6.37864583 C9.89557292,5.74029963 8.96816422,5.05377635 8.21660172,4.55514338 L8.87662745,3.91438787 C9.03561213,3.76503922 9.25,3.69277328 9.46197917,3.7 Z M5.94746078,4.93333333 C6.28229167,4.93815135 6.65807292,5.05136703 6.90136703,5.18867218 C7.55175797,5.55481802 8.87421875,6.51354167 9.99192708,7.36145833 C10.55319,7.78782537 11.068685,8.18769547 11.446875,8.48157537 C11.6347659,8.63092463 11.7889326,8.75136703 11.8949222,8.83567708 C11.9479167,8.87903677 11.9912763,8.91276042 12.0177733,8.93443995 C12.4417316,9.3632163 12.4417316,10.0328775 12.0153646,10.4592451 L10.4616538,12.0153646 C10.0328774,12.4441409 9.35839828,12.4441409 8.92962255,12.0153646 C8.97539093,12.061133 8.88385417,11.9623701 8.79472672,11.8539712 C8.70559927,11.7479816 8.58756495,11.6010417 8.4430337,11.4203775 C8.15638052,11.0614583 7.77818995,10.5772788 7.37350245,10.0473309 C6.56894547,8.98502635 5.65598958,7.71556005 5.19108088,6.89895833 C5.05136703,6.65566422 4.93815135,6.27747427 4.93333333,5.94505208 C4.92851593,5.61263052 5.01523468,5.34765625 5.18385417,5.18144547 C5.35006495,5.01523468 5.61263052,4.92851593 5.94746078,4.93333333 Z M4.55273468,8.21660172 C5.08027328,9.03079412 5.76438787,9.96542953 6.39068995,10.7916667 C6.80260417,11.3336587 7.18561213,11.8226562 7.47708333,12.1888021 C7.5734375,12.3092451 7.64329412,12.3935545 7.71796875,12.4850913 C7.00253922,13.0559896 6.61712255,13.3281899 6.34251287,13.4799479 C6.23652328,13.5401691 6.128125,13.5666667 6.01972672,13.5666667 C5.80052083,13.5666667 5.64394547,13.4992187 5.58854167,13.4221354 C5.34283885,13.0728517 4.85625,12.1285809 4.46360662,11.2927083 C4.26608088,10.8759767 4.08782537,10.4785159 3.95292953,10.175 C3.88789093,10.0256513 3.83248713,9.89798162 3.79394547,9.80403677 C3.7529951,9.7100913 3.71927083,9.61373713 3.73854167,9.66914093 C3.65182292,9.39934927 3.71445343,9.08860662 3.91438787,8.87662745 L4.55273468,8.21660172 Z M3.10260417,11.2806642 C3.18450552,11.4637371 3.25195343,11.6179038 3.3483076,11.8202475 C3.57233088,12.2947917 3.80839828,12.7837892 4.0420576,13.2222004 C3.31217463,13.4438149 2.6039712,13.5666667 1.94635417,13.5666667 L1.93671875,13.5666667 C1.5055337,13.564258 1.23333333,13.2800129 1.23333333,12.9957684 C1.23333333,12.8295576 1.31764338,12.6802083 1.49589828,12.5621746 L1.51276042,12.5501305 L1.52721385,12.5380858 C2.00657537,12.176758 2.54856802,11.7383462 3.10260417,11.2806642 Z" id="Shape"></path>
                    </g>
                </g>
            </g>
            <g id="icon/filter/baking" transform="translate(162.821532, 164.042920) rotate(-21.000000) translate(-162.821532, -164.042920) translate(152.321532, 153.542920)" fill="#E5E5E5" fill-rule="nonzero">
                <g id="icons8-Fish-Food" transform="translate(2.466667, 3.700000)">
                    <path d="M4.625,0 L4.971875,0.847916667 C5.18867218,1.37545588 5.48255208,2.69309927 5.41510417,3.31458333 C4.57441422,3.83248713 4.05891912,4.3383462 3.66145833,4.75989583 C3.1748701,4.36725245 2.21373713,3.7 0.616666667,3.7 L0,3.7 L0,4.31666667 C0,5.49700552 0.426367033,6.45572917 0.578125,6.78333333 C0.423958333,7.1085288 0,8.0335288 0,9.25 L0,9.86666667 L0.616666667,9.86666667 C2.20169302,9.86666667 3.1748701,9.19700552 3.66145833,8.80677083 C4.3913413,9.55833333 5.4319663,10.3508462 6.74479167,10.9458333 C6.68697917,11.3288413 6.64121078,11.8636066 6.80260417,12.4875 L6.91822917,12.95 L7.4,12.95 C8.16119792,12.95 8.81640625,12.57181 9.34635417,12.2369792 C9.77994792,11.9623701 9.98951838,11.7696618 10.0979167,11.678125 C12.5501305,11.5914062 14.1158854,10.2689455 14.9541667,8.9609375 C15.8213542,7.60957047 16.0333333,6.26302083 16.0333333,6.26302083 L16.0526042,6.10885417 L15.9947917,5.9546875 C15.9947917,5.9546875 14.5832034,2.0764326 10.753125,1.88854167 C10.3460288,1.39472672 9.77753922,0.9852212 8.98020833,0.655208333 C8.0383462,0.264974267 6.85318995,0 5.55,0 L4.625,0 Z M6.4171875,1.31041667 C7.19524755,1.39713542 7.9227212,1.55371078 8.4984375,1.7921875 C9.28613297,2.11738297 9.83535172,2.58470037 9.96302083,2.79427083 L10.1364583,3.08333333 L10.4833333,3.08333333 C13.564258,3.08333333 14.6723309,6.00045588 14.7614583,6.24375 C14.7180993,6.4701826 14.5398437,7.33014338 13.9135417,8.30572917 C13.1981121,9.4210288 12.0394534,10.4833333 9.86666667,10.4833333 L9.63541667,10.4833333 L9.46197917,10.6375 C9.46197917,10.6375 9.1367837,10.9145184 8.69114583,11.1963542 C8.45748713,11.3432941 8.25755208,11.3697917 8.01666667,11.4661458 C8.04075552,11.1843101 8.01666667,10.7723958 8.01666667,10.7723958 L8.1515625,10.2328125 L7.65052083,10.059375 C6.1233076,9.4764326 4.82493505,8.3779951 4.1625,7.61197917 L3.73854167,7.1109375 L3.27604167,7.5734375 C3.27604167,7.5734375 2.45462255,8.1491538 1.3875,8.42135417 C1.54648468,7.69869792 1.7921875,7.053125 1.7921875,7.053125 L1.92708333,6.78333333 L1.7921875,6.51354167 C1.7921875,6.51354167 1.52480453,5.80533885 1.36822917,5.04895833 C2.50520833,5.29947917 3.27604167,5.99322917 3.27604167,5.99322917 L3.73854167,6.45572917 L4.1625,5.9546875 C4.71412745,5.33079412 6.20039093,3.77708333 8.3828125,3.48802083 L8.209375,2.27395833 C7.61920588,2.35104167 7.10371078,2.52207047 6.60989583,2.7171875 C6.57858088,2.1992837 6.55208333,1.75364583 6.4171875,1.31041667 Z M12.025,5.55 C11.5143229,5.55 11.1,5.96432292 11.1,6.475 C11.1,6.98567708 11.5143229,7.4 12.025,7.4 C12.5356771,7.4 12.95,6.98567708 12.95,6.475 C12.95,5.96432292 12.5356771,5.55 12.025,5.55 Z" id="Shape"></path>
                </g>
            </g>
            <g id="icon/filter/burger-copy" transform="translate(200.890235, 46.708955) rotate(-26.000000) translate(-200.890235, -46.708955) translate(190.390235, 36.208955)">
                <g id="icon/filter/burger">
                    <rect id="Rectangle-10" x="0" y="0" width="20.9666667" height="20.9666667"></rect>
                    <g id="icons8-Hamburger" transform="translate(3.083333, 4.316667)" fill="#E5E5E5" fill-rule="nonzero">
                        <path d="M4.34845361,0 C2.33395634,0 0.686597938,1.66451838 0.686597938,3.7 L0.686597938,3.85416667 L0,4.77916667 C0.216946029,4.94296875 0.44342814,5.05136703 0.686597938,5.12604167 L0.686597938,6.6484375 C0.314690722,6.98808578 0.0762886598,7.47467463 0.0762886598,8.01666667 C0.0762886598,8.5586587 0.314690722,9.04524755 0.686597938,9.38489583 L0.686597938,11.1 C0.686597938,11.7744792 1.23969072,12.3333333 1.90721649,12.3333333 L12.8927835,12.3333333 C13.5603093,12.3333333 14.1134021,11.7744792 14.1134021,11.1 L14.1134021,9.38489583 C14.4853093,9.04524755 14.7237113,8.5586587 14.7237113,8.01666667 C14.7237113,7.47467463 14.4853093,6.98808578 14.1134021,6.6484375 L14.1134021,5.12604167 C14.3565725,5.05136703 14.583054,4.94296875 14.8,4.77916667 L14.1134021,3.83489583 L14.1134021,3.7 C14.1134021,1.66451838 12.4660437,0 10.4515464,0 L4.34845361,0 Z M4.31666667,1.23333333 L4.93333333,1.23333333 C4.93333333,1.5721214 5.21035172,1.84843819 5.55,1.84843819 C5.88964828,1.84843819 6.16666667,1.5721214 6.16666667,1.23333333 L10.4833333,1.23333333 C11.8515625,1.23333333 12.95,2.32898885 12.95,3.69375275 L12.95,4.00130518 C12.7910159,3.95805592 12.6440754,3.8739594 12.5067708,3.77064086 L12.1791667,3.53997654 L11.8130208,3.75141883 L11.3505208,4.0205272 C10.9193358,4.27762196 10.3942059,4.27762196 9.96302083,4.0205272 L9.50052083,3.75141883 L9.21145833,3.57842059 L8.903125,3.71297478 L8.01666667,4.17430342 C7.6336587,4.36412108 7.18561213,4.36412108 6.80260417,4.17430342 L5.896875,3.71297478 L5.58854167,3.57842059 L5.29947917,3.75141883 L4.83697917,4.0205272 C4.40579412,4.27762196 3.88066422,4.27762196 3.44947917,4.0205272 L2.98697917,3.75141883 L2.62083333,3.53997654 L2.29322917,3.77064086 C2.15592463,3.8739594 2.00657537,3.95805592 1.85,4.00130518 L1.85,3.69375275 C1.85,2.32898885 2.9484375,1.23333333 4.31666667,1.23333333 Z M4.31666667,1.85 C3.97701838,1.85 3.7,2.12701838 3.7,2.46666667 C3.7,2.80631495 3.97701838,3.08333333 4.31666667,3.08333333 C4.65631495,3.08333333 4.93333333,2.80631495 4.93333333,2.46666667 C4.93333333,2.12701838 4.65631495,1.85 4.31666667,1.85 Z M6.78333333,1.85 C6.44368505,1.85 6.16666667,2.12701838 6.16666667,2.46666667 C6.16666667,2.80631495 6.44368505,3.08333333 6.78333333,3.08333333 C7.12298162,3.08333333 7.4,2.80631495 7.4,2.46666667 C7.4,2.12701838 7.12298162,1.85 6.78333333,1.85 Z M2.56302083,4.93333333 L2.81354167,5.0875 C3.63255208,5.57890625 4.65390625,5.57890625 5.47291667,5.0875 L5.64635417,4.971875 L6.24375,5.28020833 C6.97122427,5.64394547 7.82877635,5.64394547 8.55625,5.28020833 L9.15364583,4.971875 L9.32708333,5.0875 C10.1460937,5.57890625 11.1674479,5.57890625 11.9864583,5.0875 L12.2369792,4.93333333 C12.4682292,5.04414093 12.7042972,5.11399755 12.95,5.16458333 L12.95,6.16666667 L1.85,6.16666667 L1.85,5.16458333 C2.09570343,5.11399755 2.33177083,5.04414093 2.56302083,4.93333333 Z M1.85,7.4 L12.95,7.4 C13.2992837,7.4 13.5666667,7.66738297 13.5666667,8.01666667 C13.5666667,8.36595037 13.2992837,8.63333333 12.95,8.63333333 L1.85,8.63333333 C1.5007163,8.63333333 1.23333333,8.36595037 1.23333333,8.01666667 C1.23333333,7.66738297 1.5007163,7.4 1.85,7.4 Z M1.85,9.86666667 L12.95,9.86666667 L12.95,11.1 L1.85,11.1 L1.85,9.86666667 Z" id="Shape"></path>
                    </g>
                </g>
            </g>
        </g>
    </g>
</svg>